<?xml version="1.0" encoding="UTF-8"?>
    <svg width="800" height="300" version="1.1" xmlns="http://www.w3.org/2000/svg">
    <style>
        .row { font: 14px Arial; fill: #64748b; }
        .score { font: bold 14px Arial; fill: #64748b; }
    </style>
    <text x="400" y="40" text-anchor="middle" font-size="20px" font-weight="bold" fill="#64748b">Channel Performance Overview</text><rect x="150" y="80" width="500" height="30" fill="#eee" rx="5"/><rect x="150" y="80" width="380.15" height="30" fill="#22c55e" rx="5"/>
        <text x="140" y="100" text-anchor="end" class="row">6ca22ad3b96aa6601fbe4457dad107a2</text>
        <text x="660" y="100" text-anchor="start" class="score">76.0% (S:100%)</text><rect x="150" y="130" width="500" height="30" fill="#eee" rx="5"/><rect x="150" y="130" width="382.65" height="30" fill="#22c55e" rx="5"/>
        <text x="140" y="150" text-anchor="end" class="row">subscribe?token=05dd6e525ca86b5f950cd93e7bea3929</text>
        <text x="660" y="150" text-anchor="start" class="score">76.5% (S:100%)</text><rect x="150" y="180" width="500" height="30" fill="#eee" rx="5"/><rect x="150" y="180" width="381.0" height="30" fill="#22c55e" rx="5"/>
        <text x="140" y="200" text-anchor="end" class="row">d2ddf60933dd08ad67d3585f72ed16c3</text>
        <text x="660" y="200" text-anchor="start" class="score">76.2% (S:100%)</text><rect x="150" y="230" width="500" height="30" fill="#eee" rx="5"/><rect x="150" y="230" width="362.84999999999997" height="30" fill="#22c55e" rx="5"/>
        <text x="140" y="250" text-anchor="end" class="row">56c52d37015ce5c33fd0b6112b639f08</text>
        <text x="660" y="250" text-anchor="start" class="score">72.6% (S:100%)</text></svg>